Coordinates
version=1
nRows=15
nColumns=42
inDegrees=yes

Units are S.I. units (second, meters, Newtons, ...)
If the header above contains a line with 'inDegrees', this indicates whether rotational values are in degrees (yes) or radians (no).

endheader
time	pelvis_tilt	pelvis_list	pelvis_rotation	pelvis_tx	pelvis_ty	pelvis_tz	hip_flexion_r	hip_adduction_r	hip_rotation_r	knee_angle_r	knee_adduction_r	knee_angle_r_beta	ankle_angle_r	subtalar_angle_r	mtp_angle_r	hip_flexion_l	hip_adduction_l	hip_rotation_l	knee_angle_l	knee_adduction_l	knee_angle_l_beta	ankle_angle_l	subtalar_angle_l	mtp_angle_l	lumbar_extension	lumbar_bending	lumbar_rotation	arm_flex_r	arm_add_r	arm_rot_r	elbow_flex_r	pro_sup_r	wrist_flex_r	wrist_dev_r	arm_flex_l	arm_add_l	arm_rot_l	elbow_flex_l	pro_sup_l	wrist_flex_l	wrist_dev_l
      0.40000000	     12.54554880	      2.17984484	      4.61141165	     -0.64605755	      0.92433292	     -0.22348452	    -24.90270760	      8.73024996	    -27.85304410	      1.82534404	     -3.76434242	      0.03185826	     23.05316511	     19.27487576	     -8.89377932	     18.15273653	      4.65616484	    -35.47196565	     18.11240183	    -10.91492157	      0.31612105	     18.55030327	     38.25017191	     -8.89377932	    -43.87102728	      0.60245457	     -1.19675765	      6.52425596	    -11.68015450	      7.55873473	     39.76007759	     90.00000001	      0.00000000	      0.00000000	     -5.74612761	    -10.04212755	     14.19370244	     47.12213372	     90.00000001	      0.00000000	      0.00000000
      0.41000000	     12.60399110	      2.01720834	      4.47840499	     -0.63898049	      0.92262811	     -0.22364972	    -25.49612981	      8.85948322	    -27.92782259	      1.83327342	     -3.77135407	      0.03199666	     23.18565086	     19.30591093	     -8.89109730	     18.15458843	      4.69395076	    -35.28402596	     18.26298153	    -11.11757470	      0.31874916	     18.52038484	     38.23170893	     -8.89109730	    -43.80557559	      0.51145473	     -1.06805322	      6.32574091	    -11.61240907	      7.59960325	     39.64199226	     90.00000001	      0.00000000	      0.00000000	     -5.81548475	    -10.03425674	     14.18035654	     47.06145037	     90.00000001	      0.00000000	      0.00000000
      0.42000000	     12.77809447	      1.87287487	      4.46089975	     -0.63173304	      0.92114854	     -0.22422725	    -26.41744354	      8.91990262	    -27.81393329	      1.60107598	     -3.43160963	      0.02794405	     23.56656703	     19.64680461	     -8.88199757	     18.11116614	      4.73288102	    -34.94947712	     18.85375667	    -11.39225445	      0.32906013	     18.44284273	     38.08970372	     -8.88199757	    -43.87219625	      0.49172947	     -1.09615345	      6.19634499	    -11.53646025	      7.69505824	     39.45974416	     90.00000001	      0.00000000	      0.00000000	     -5.85725485	     -9.98484733	     14.17779623	     46.93725169	     90.00000001	      0.00000000	      0.00000000
      0.43000000	     12.91084277	      1.75332845	      4.29418676	     -0.62443829	      0.91970496	     -0.22460790	    -27.09084219	      8.95078653	    -27.73089847	      1.62444323	     -3.43620331	      0.02835188	     23.79489238	     19.82896644	     -8.87407193	     18.03796817	      4.81153154	    -34.53152922	     19.41662214	    -11.72745712	      0.33888399	     18.23275250	     37.85719569	     -8.87407193	    -43.89408404	      0.37876882	     -0.97797130	      6.03204843	    -11.50053930	      7.76862103	     39.29138142	     90.00000001	      0.00000000	      0.00000000	     -5.88993289	     -9.98509614	     14.15424188	     46.83432484	     90.00000001	      0.00000000	      0.00000000
      0.44000000	     12.95022760	      1.59077089	      4.12615581	     -0.61689706	      0.91810183	     -0.22484135	    -27.67310284	      9.03617031	    -27.55667044	      1.65881939	     -3.43863063	      0.02895186	     24.15292026	     20.29087831	     -8.84497276	     18.09214802	      4.75827727	    -34.01152008	     20.23195802	    -11.98104360	      0.35311428	     17.64656820	     37.18795181	     -8.84497276	    -43.77055912	      0.23961778	     -0.87371741	      5.85499488	    -11.42542154	      7.94319762	     39.04569494	     90.00000001	      0.00000000	      0.00000000	     -6.01141175	     -9.95251992	     14.10878138	     46.67153345	     90.00000001	      0.00000000	      0.00000000
      0.45000000	     13.09283524	      1.53395747	      3.88277673	     -0.60934630	      0.91694872	     -0.22521207	    -28.24400976	      8.94379831	    -27.34281324	      1.94205160	     -3.53572654	      0.03389519	     24.35374663	     20.34979099	     -8.83466780	     17.92731247	      4.89849858	    -33.44192535	     20.89772419	    -12.33550586	      0.36473409	     17.17274557	     36.72952389	     -8.83466780	    -43.79023129	      0.01452486	     -0.75668411	      5.69377264	    -11.36400738	      7.99421934	     38.87714603	     90.00000001	      0.00000000	      0.00000000	     -6.05642822	     -9.94899597	     14.09102480	     46.51141004	     90.00000001	      0.00000000	      0.00000000
      0.46000000	     13.11954800	      1.46473813	      3.59355402	     -0.60180225	      0.91582257	     -0.22542347	    -28.63607994	      8.83272261	    -27.00682403	      2.29300213	     -3.63903323	      0.04002044	     24.76176431	     20.37316474	     -8.81194455	     17.87405923	      4.93557206	    -32.69871259	     21.69715629	    -12.49283816	      0.37868682	     15.99685920	     35.32578881	     -8.81194455	    -43.70286666	     -0.27886363	     -0.64058881	      5.54434151	    -11.24510108	      8.08238836	     38.56124247	     90.00000001	      0.00000000	      0.00000000	     -6.09328278	     -9.88047034	     14.07419565	     46.25499450	     90.00000001	      0.00000000	      0.00000000
      0.47000000	     13.15461249	      1.46356451	      3.27874632	     -0.59434974	      0.91499676	     -0.22566622	    -28.87677997	      8.66037752	    -26.64180287	      2.89584014	     -3.93303984	      0.05054195	     25.05463438	     20.22460932	     -8.78099325	     17.71400182	      5.15371128	    -31.57706551	     22.35210508	    -12.63190764	      0.39011783	     14.83625764	     33.30963066	     -8.78099325	    -43.65675145	     -0.63622644	     -0.52498878	      5.42459119	    -11.12017624	      8.11759255	     38.21901405	     90.00000001	      0.00000000	      0.00000000	     -6.08411845	     -9.86907949	     14.03269869	     45.98089404	     90.00000001	      0.00000000	      0.00000000
      0.48000000	     13.17410288	      1.54381710	      3.00562474	     -0.58700892	      0.91450906	     -0.22619174	    -29.04635464	      8.36285293	    -26.29404529	      3.61800042	     -4.17971706	      0.06314602	     25.23088305	     19.84635390	     -8.72480051	     17.36520719	      5.66303713	    -29.66185340	     22.69066749	    -12.60521229	      0.39602686	     13.71558939	     30.05687415	     -8.72480051	    -43.63226325	     -1.01869490	     -0.58569661	      5.41453053	    -10.91557324	      8.05173822	     37.91797713	     90.00000001	      0.00000000	      0.00000000	     -6.10395900	     -9.85223659	     14.02055828	     45.71863171	     90.00000001	      0.00000000	      0.00000000
      0.49000000	     13.23691277	      1.59016255	      2.64575412	     -0.57946061	      0.91425006	     -0.22650924	    -29.15294112	      8.06026339	    -25.92629198	      4.55870843	     -4.51687172	      0.07956447	     25.36110700	     19.49650722	     -8.69940593	     17.10662948	      5.77980142	    -28.98099309	     23.34517822	    -12.61394118	      0.40745022	     12.67226624	     28.43141431	     -8.69940593	    -43.62405401	     -1.43337656	     -0.43377237	      5.26537278	    -10.80765744	      8.06277257	     37.57953432	     90.00000001	      0.00000000	      0.00000000	     -6.05697863	     -9.84305045	     14.03923191	     45.47692372	     90.00000001	      0.00000000	      0.00000000
      0.50000000	     13.31134004	      1.68301714	      2.31564725	     -0.57203310	      0.91434496	     -0.22697516	    -29.22171270	      7.70013099	    -25.48957915	      5.59249603	     -4.84347443	      0.09760747	     25.41812766	     18.99089210	     -8.67410762	     16.75203850	      6.01830097	    -28.15363618	     23.83654439	    -12.61089444	      0.41602618	     11.73752473	     26.51732010	     -8.67410762	    -43.65853990	     -1.86341389	     -0.41420688	      5.21108741	    -10.63339368	      8.04132187	     37.24421677	     90.00000001	      0.00000000	      0.00000000	     -6.00509219	     -9.87353888	     14.07989055	     45.21788049	     90.00000001	      0.00000000	      0.00000000
      0.51000000	     13.27627379	      1.92036218	      2.19447215	     -0.56486614	      0.91465871	     -0.22803040	    -29.24945763	      7.28667791	    -24.82399982	      6.46621952	     -5.07067631	      0.11285682	     25.23937741	     17.79304586	     -8.60955857	     16.25638487	      6.77864394	    -26.01753551	     23.87310866	    -12.40735277	      0.41666435	     10.74014462	     22.89310767	     -8.60955857	    -43.64551355	     -2.29963674	     -0.60700871	      5.16063817	    -10.40443059	      7.83487276	     36.91987993	     90.00000001	      0.00000000	      0.00000000	     -5.93973266	     -9.95003049	     14.18007238	     45.04182728	     90.00000001	      0.00000000	      0.00000000
      0.52000000	     13.32950581	      1.96963226	      1.93399699	     -0.55747447	      0.91517792	     -0.22856890	    -29.23989312	      7.00884570	    -24.35260909	      7.54521570	     -5.41874869	      0.13168886	     24.93831168	     17.33559362	     -8.59191218	     15.96549435	      6.77802891	    -26.00182237	     24.42692415	    -12.41089267	      0.42633025	     10.33976308	     22.28646283	     -8.59191218	    -43.67523931	     -2.65994483	     -0.58681241	      5.08243802	    -10.24933852	      7.86806727	     36.65001271	     90.00000001	      0.00000000	      0.00000000	     -5.88540670	     -9.99806218	     14.23684692	     44.85162371	     90.00000001	      0.00000000	      0.00000000
      0.53000000	     13.30552041	      2.04318814	      1.83607789	     -0.55013973	      0.91575967	     -0.22949630	    -29.20523564	      6.79460981	    -23.84167511	      8.48647751	     -5.74102205	      0.14811697	     24.63382897	     16.98872999	     -8.58142623	     15.71772551	      6.92524013	    -25.86833525	     24.83634993	    -12.51413205	      0.43347608	     10.17491442	     22.00909070	     -8.58142623	    -43.63617554	     -2.93214765	     -0.70710484	      4.97485738	    -10.09194107	      7.87954115	     36.49797445	     90.00000001	      0.00000000	      0.00000000	     -5.86714651	    -10.09951541	     14.28269003	     44.72756690	     90.00000001	      0.00000000	      0.00000000
      0.54000000	     13.29952709	      2.11916181	      1.62068198	     -0.54306878	      0.91684785	     -0.23022834	    -29.19580813	      6.59789127	    -22.09287180	      9.53240806	     -5.94487145	      0.16637191	     23.53267046	     13.57391715	     -8.50066262	     15.32951178	      6.99701638	    -25.88726251	     25.06131377	    -12.45640689	      0.43740244	      9.93813804	     21.37744049	     -8.50066262	    -43.66780372	     -3.28764951	     -0.71443268	      4.96933481	     -9.87133821	      7.66260223	     36.09628026	     90.00000001	      0.00000000	      0.00000000	     -5.72086928	    -10.23859160	     14.65578816	     44.55137526	     90.00000001	      0.00000000	      0.00000000
